<?xml version="1.0" encoding="UTF-8" standalone="no"?>
<svg
   xmlns:dc="http://purl.org/dc/elements/1.1/"
   xmlns:cc="http://creativecommons.org/ns#"
   xmlns:rdf="http://www.w3.org/1999/02/22-rdf-syntax-ns#"
   xmlns:svg="http://www.w3.org/2000/svg"
   xmlns="http://www.w3.org/2000/svg"
   width="64"
   height="64"
   viewBox="0 0 16.933333 16.933333"
   version="1.1"
   id="svg8">
  <defs
     id="defs2" />
  <metadata
     id="metadata5">
    <rdf:RDF>
      <cc:Work
         rdf:about="">
        <dc:format>image/svg+xml</dc:format>
        <dc:type
           rdf:resource="http://purl.org/dc/dcmitype/StillImage" />
        <dc:title></dc:title>
      </cc:Work>
    </rdf:RDF>
  </metadata>
  <g
     id="layer1">
    <path
       style="fill:#000000;stroke-width:0.0361282"
       d="M 4.781313,15.444943 C 3.2094123,15.27937 1.8115371,14.32965 1.0622377,12.918195 0.46764351,11.798161 0.35534617,10.428424 0.75727479,9.198459 1.1507975,7.9942177 2.1228154,6.9087918 3.2710735,6.3913665 L 3.5691339,6.2570559 V 5.6142456 4.9714351 H 5.2671683 6.965204 L 6.9654769,5.6127143 6.9657497,6.2539937 7.281541,6.398227 C 7.7963459,6.6333571 8.2065385,6.9251237 8.6463442,7.3689972 9.0710655,7.797648 9.2913277,8.1023892 9.5441954,8.6112132 10.240652,10.01263 10.190563,11.69773 9.4120828,13.055823 8.633353,14.414349 7.2603379,15.300858 5.7068301,15.448176 c -0.4285813,0.04064 -0.5118705,0.04035 -0.9256365,-0.0033 z M 11.291928,7.7497981 C 10.540299,7.6678017 9.8341951,7.1711528 9.4991645,6.4888284 9.2665773,6.0151436 9.2427372,5.8397926 9.2412941,4.5920867 9.2403382,3.8036355 9.2262178,3.4430298 9.1893278,3.2689924 9.0120936,2.4328374 8.2259194,1.7906041 7.3821217,1.7926691 6.719073,1.7942912 6.0771758,2.1715072 5.7535699,2.7496992 5.562394,3.0912738 5.5200667,3.3152884 5.5200667,3.9854943 V 4.5740225 H 5.2814635 5.0428591 L 5.0591235,3.8604867 C 5.0730116,3.2511937 5.0865193,3.1164676 5.1515817,2.9382982 5.2934228,2.549884 5.459516,2.2855465 5.7377018,2.0054933 6.6362812,1.1008797 8.0983355,1.0946221 9.0058768,1.991505 9.275113,2.2575792 9.456856,2.5499975 9.5894964,2.9305268 L 9.690122,3.2192073 9.711319,4.51983 c 0.01815,1.114047 0.030281,1.3254137 0.084525,1.4734421 0.285273,0.7784959 0.996377,1.2918962 1.786551,1.2898473 0.682513,-0.00176 1.351921,-0.4260197 1.656099,-1.0495816 0.160049,-0.3281013 0.193704,-0.5351398 0.193704,-1.1916242 V 4.4656372 h 0.234834 0.234834 l -7.03e-4,0.605151 c -6.94e-4,0.7268704 -0.04933,0.9950736 -0.256294,1.4149088 -0.184382,0.3740349 -0.580151,0.7924743 -0.935314,0.9888902 -0.409896,0.2266845 -0.93252,0.3281388 -1.417694,0.2752109 z m 0.468389,-1.5778315 c -0.07401,-0.075785 -0.134549,-0.1535726 -0.134549,-0.1728624 0,-0.019291 0.235724,-0.2703754 0.52383,-0.557968 l 0.52383,-0.5228951 0.153238,0.153238 0.153238,0.1532381 -0.54252,0.54252 -0.542519,0.5425197 z m 3.153327,-0.4067617 -0.517987,-0.545874 0.141972,-0.1419724 0.141972,-0.1419724 0.532944,0.5338334 0.532942,0.5338334 -0.156926,0.1540125 -0.156928,0.1540131 z m -3.967085,-1.5434342 0.01083,-0.2077386 h 0.758697 0.758696 l 0.01084,0.2077386 0.01084,0.2077383 h -0.780365 -0.780367 z m 3.930765,-0.00904 V 3.9959661 h 0.758697 0.758696 V 4.2127368 4.4295072 H 15.636021 14.877324 Z M 12.14963,2.9843708 11.608687,2.4425241 11.7532,2.2980106 11.897714,2.1534969 12.438657,2.6953437 12.979601,3.2371902 12.835087,3.381704 12.690573,3.5262175 Z m 2.375061,0.388163 -0.152256,-0.1551383 0.541432,-0.5405294 0.541432,-0.5405299 0.153247,0.1532461 0.153245,0.1532458 -0.542421,0.5424218 -0.542422,0.5424218 z M 13.468317,2.2618039 V 1.5031073 h 0.216769 0.216771 v 0.7586966 0.7586967 h -0.216771 -0.216769 z"
       id="path24" />
  </g>
</svg>
